<svg width="45" height="40" viewBox="0 0 45 40" fill="none" xmlns="http://www.w3.org/2000/svg">
<path d="M20 24.7619V40H0C0 35.9586 2.10714 32.0827 5.85786 29.225C9.60859 26.3673 14.6957 24.7619 20 24.7619ZM20 22.8571C11.7125 22.8571 5 17.7429 5 11.4286C5 5.11429 11.7125 0 20 0C28.2875 0 35 5.11429 35 11.4286C35 17.7429 28.2875 22.8571 20 22.8571ZM42.5 30.4762H45V40H25V30.4762H27.5V28.5714C27.5 27.0559 28.2902 25.6025 29.6967 24.5308C31.1032 23.4592 33.0109 22.8571 35 22.8571C36.9891 22.8571 38.8968 23.4592 40.3033 24.5308C41.7098 25.6025 42.5 27.0559 42.5 28.5714V30.4762ZM37.5 30.4762V28.5714C37.5 28.0663 37.2366 27.5818 36.7678 27.2246C36.2989 26.8673 35.663 26.6667 35 26.6667C34.337 26.6667 33.7011 26.8673 33.2322 27.2246C32.7634 27.5818 32.5 28.0663 32.5 28.5714V30.4762H37.5Z" fill="#F4A850"/>
</svg>
