<svg width="57" height="60" viewBox="0 0 57 60" fill="none" xmlns="http://www.w3.org/2000/svg">
<path d="M48.8229 13.9863L42.8947 7.75195C42.1711 6.99023 41.2025 6.5625 40.1783 6.5625C39.1541 6.5625 38.1855 6.98438 37.4619 7.75195L31.0772 14.4609C30.3536 15.2227 29.9473 16.248 29.9473 17.3262C29.9473 18.4102 30.348 19.4238 31.0772 20.1914L36.0647 25.4473C34.9285 28.2339 33.296 30.7658 31.2554 32.9062C29.2125 35.0684 26.8245 36.7734 24.1749 37.9805L19.1874 32.7246C18.4638 31.9629 17.4952 31.5352 16.471 31.5352C15.9658 31.5332 15.4653 31.6374 14.9989 31.8416C14.5324 32.0459 14.1094 32.3461 13.7546 32.7246L7.36436 39.4336C6.64072 40.1953 6.23438 41.2207 6.23438 42.2988C6.23438 43.3828 6.63516 44.3965 7.36436 45.1641L13.287 51.3984C14.5228 52.6992 16.2261 53.4434 17.9739 53.4434C18.3357 53.4434 18.6864 53.4141 19.0427 53.3496C26.4126 52.0723 33.7269 47.9414 39.6328 41.7305C45.5332 35.5078 49.452 27.8086 50.6766 20.0449C51.0272 17.8418 50.3259 15.5742 48.8229 13.9863ZM46.73 19.3477C45.6445 26.2559 42.1154 33.1465 36.7995 38.7422C31.4836 44.3379 24.9431 48.0527 18.3803 49.1953C17.5564 49.3418 16.7104 49.0488 16.1092 48.4219L10.2923 42.2988L16.4599 35.8008L23.1284 42.832L23.1785 42.8848L24.3809 42.416C28.0265 41.0051 31.337 38.7766 34.0831 35.885C36.8291 32.9934 38.945 29.5079 40.2841 25.6699L40.7294 24.4043L34.0052 17.332L40.1728 10.834L45.9897 16.957C46.5908 17.5898 46.8691 18.4805 46.73 19.3477Z" fill="#F4A850"/>
</svg>
