<svg width="53" height="45" viewBox="0 0 53 45" fill="none" xmlns="http://www.w3.org/2000/svg">
<rect width="53" height="45" rx="15" fill="#F4A850"/>
<path d="M17.2251 3.75H35.7751C42.8418 3.75 48.5834 8.625 48.5834 14.625V30.375C48.5834 33.2592 47.234 36.0253 44.8319 38.0648C42.4299 40.1042 39.1721 41.25 35.7751 41.25H17.2251C10.1584 41.25 4.41675 36.375 4.41675 30.375V14.625C4.41675 11.7408 5.76619 8.97467 8.16822 6.93521C10.5703 4.89576 13.8281 3.75 17.2251 3.75ZM16.7834 7.5C14.6749 7.5 12.6528 8.21116 11.1619 9.47703C9.671 10.7429 8.83342 12.4598 8.83342 14.25V30.75C8.83342 34.4812 12.3888 37.5 16.7834 37.5H36.2167C38.3252 37.5 40.3473 36.7888 41.8383 35.523C43.3292 34.2571 44.1668 32.5402 44.1668 30.75V14.25C44.1668 10.5187 40.6113 7.5 36.2167 7.5H16.7834ZM38.0938 10.3125C38.8259 10.3125 39.5281 10.5594 40.0457 10.999C40.5634 11.4385 40.8543 12.0346 40.8543 12.6562C40.8543 13.2779 40.5634 13.874 40.0457 14.3135C39.5281 14.7531 38.8259 15 38.0938 15C37.3617 15 36.6596 14.7531 36.1419 14.3135C35.6242 13.874 35.3334 13.2779 35.3334 12.6562C35.3334 12.0346 35.6242 11.4385 36.1419 10.999C36.6596 10.5594 37.3617 10.3125 38.0938 10.3125ZM26.5001 13.125C29.4285 13.125 32.237 14.1127 34.3077 15.8709C36.3784 17.629 37.5418 20.0136 37.5418 22.5C37.5418 24.9864 36.3784 27.371 34.3077 29.1291C32.237 30.8873 29.4285 31.875 26.5001 31.875C23.5717 31.875 20.7632 30.8873 18.6924 29.1291C16.6217 27.371 15.4584 24.9864 15.4584 22.5C15.4584 20.0136 16.6217 17.629 18.6924 15.8709C20.7632 14.1127 23.5717 13.125 26.5001 13.125ZM26.5001 16.875C24.743 16.875 23.0579 17.4676 21.8155 18.5225C20.5731 19.5774 19.8751 21.0082 19.8751 22.5C19.8751 23.9918 20.5731 25.4226 21.8155 26.4775C23.0579 27.5324 24.743 28.125 26.5001 28.125C28.2571 28.125 29.9422 27.5324 31.1847 26.4775C32.4271 25.4226 33.1251 23.9918 33.1251 22.5C33.1251 21.0082 32.4271 19.5774 31.1847 18.5225C29.9422 17.4676 28.2571 16.875 26.5001 16.875Z" fill="black"/>
</svg>
