<svg width="66" height="60" viewBox="0 0 66 60" fill="none" xmlns="http://www.w3.org/2000/svg">
<path d="M52.25 7.5C53.7087 7.5 55.1076 8.02678 56.1391 8.96447C57.1705 9.90215 57.75 11.1739 57.75 12.5V47.5C57.75 48.8261 57.1705 50.0979 56.1391 51.0355C55.1076 51.9732 53.7087 52.5 52.25 52.5H13.75C12.2913 52.5 10.8924 51.9732 9.86091 51.0355C8.82946 50.0979 8.25 48.8261 8.25 47.5V12.5C8.25 11.1739 8.82946 9.90215 9.86091 8.96447C10.8924 8.02678 12.2913 7.5 13.75 7.5H52.25ZM50.875 46.25V33C50.875 30.8385 49.9305 28.7655 48.2492 27.2371C46.5679 25.7087 44.2877 24.85 41.91 24.85C39.5725 24.85 36.85 26.15 35.53 28.1V25.325H27.8575V46.25H35.53V33.925C35.53 32 37.235 30.425 39.3525 30.425C40.3736 30.425 41.3528 30.7937 42.0749 31.4501C42.7969 32.1065 43.2025 32.9967 43.2025 33.925V46.25H50.875ZM18.92 21.4C20.1453 21.4 21.3204 20.9575 22.1868 20.1698C23.0533 19.3822 23.54 18.3139 23.54 17.2C23.54 14.875 21.4775 12.975 18.92 12.975C17.6874 12.975 16.5053 13.4201 15.6337 14.2125C14.7621 15.0048 14.2725 16.0795 14.2725 17.2C14.2725 19.525 16.3625 21.4 18.92 21.4ZM22.7425 46.25V25.325H15.125V46.25H22.7425Z" fill="#F4A850"/>
</svg>
