<svg width="51" height="52" viewBox="0 0 51 52" fill="none" xmlns="http://www.w3.org/2000/svg">
<path d="M25.5 24.9168C24.091 24.9168 22.7398 24.3461 21.7435 23.3303C20.7472 22.3145 20.1875 20.9368 20.1875 19.5002C20.1875 18.0636 20.7472 16.6858 21.7435 15.67C22.7398 14.6542 24.091 14.0835 25.5 14.0835C26.909 14.0835 28.2602 14.6542 29.2565 15.67C30.2528 16.6858 30.8125 18.0636 30.8125 19.5002C30.8125 20.2115 30.6751 20.9158 30.4081 21.573C30.1411 22.2302 29.7498 22.8273 29.2565 23.3303C28.7632 23.8333 28.1775 24.2323 27.533 24.5045C26.8885 24.7767 26.1976 24.9168 25.5 24.9168ZM25.5 4.3335C21.5549 4.3335 17.7714 5.93141 14.9818 8.77571C12.1922 11.62 10.625 15.4777 10.625 19.5002C10.625 30.8752 25.5 47.6668 25.5 47.6668C25.5 47.6668 40.375 30.8752 40.375 19.5002C40.375 15.4777 38.8078 11.62 36.0182 8.77571C33.2286 5.93141 29.4451 4.3335 25.5 4.3335Z" fill="#F4A850"/>
</svg>
