<svg width="45" height="40" viewBox="0 0 45 40" fill="none" xmlns="http://www.w3.org/2000/svg">
<g clip-path="url(#clip0_2026_7)">
<path d="M0 16V32C0 33.0609 0.474106 34.0783 1.31802 34.8284C2.16193 35.5786 3.30653 36 4.5 36H40.5C41.6935 36 42.8381 35.5786 43.682 34.8284C44.5259 34.0783 45 33.0609 45 32V16L22.5 24L0 16Z" fill="#F4A850"/>
<path d="M4.5 4C3.30653 4 2.16193 4.42143 1.31802 5.17157C0.474106 5.92172 0 6.93913 0 8L0 12L22.5 20L45 12V8C45 6.93913 44.5259 5.92172 43.682 5.17157C42.8381 4.42143 41.6935 4 40.5 4H4.5Z" fill="#F4A850"/>
</g>
<defs>
<clipPath id="clip0_2026_7">
<rect width="45" height="40" fill="white"/>
</clipPath>
</defs>
</svg>
