<svg width="53" height="36" viewBox="0 0 53 36" fill="none" xmlns="http://www.w3.org/2000/svg">
<path d="M7.57154 0C3.39542 0 0.000106812 2.29677 0.000106812 5.12172V30.7303C0.000106812 33.5552 3.39542 35.852 7.57154 35.852H45.4287C49.6048 35.852 53.0001 33.5552 53.0001 30.7303V5.12172C53.0001 2.29677 49.6048 0 45.4287 0H7.57154ZM42.7195 6.72225L30.4396 16.2134L44.8845 29.1298H33.5747L24.7256 21.2951L14.5869 29.1298H8.96752L22.0992 18.9744L8.24587 6.72225H19.8396L27.8488 13.8847L37.1001 6.72225H42.7195ZM38.2477 26.857L18.1479 8.87497H14.7999L35.1244 26.857H38.2358H38.2477Z" fill="#F4A850"/>
</svg>
