<svg width="73" height="69" viewBox="0 0 73 69" fill="none" xmlns="http://www.w3.org/2000/svg">
<path d="M30.4166 43.125L46.2028 34.5L30.4166 25.875V43.125ZM65.5782 20.6138C65.9737 21.965 66.2474 23.7762 66.4299 26.0762C66.6428 28.3762 66.7341 30.36 66.7341 32.085L66.9166 34.5C66.9166 40.7962 66.4299 45.425 65.5782 48.3862C64.8178 50.9738 63.0537 52.6412 60.3162 53.36C58.8866 53.7337 56.2708 53.9925 52.2557 54.165C48.3016 54.3662 44.682 54.4525 41.3362 54.4525L36.4999 54.625C23.7553 54.625 15.8166 54.165 12.6837 53.36C9.94617 52.6412 8.182 50.9738 7.42159 48.3862C7.02617 47.035 6.75242 45.2238 6.56992 42.9238C6.357 40.6238 6.26575 38.64 6.26575 36.915L6.08325 34.5C6.08325 28.2037 6.56992 23.575 7.42159 20.6138C8.182 18.0263 9.94617 16.3588 12.6837 15.64C14.1133 15.2663 16.7291 15.0075 20.7441 14.835C24.6983 14.6337 28.3178 14.5475 31.6637 14.5475L36.4999 14.375C49.2445 14.375 57.1833 14.835 60.3162 15.64C63.0537 16.3588 64.8178 18.0263 65.5782 20.6138Z" fill="#F4A850"/>
</svg>
